<svg xmlns="http://www.w3.org/2000/svg" xmlns:xlink="http://www.w3.org/1999/xlink" id="Capa_1" x="0px" y="0px" viewBox="0 0 250 147" style="enable-background:new 0 0 250 147;" xml:space="preserve"><style type="text/css">	.st0{fill:#2A4B5B;}	.st1{fill:#072233;}	.st2{fill:#E6E1F1;}	.st3{fill:#D3C8E8;}	.st4{fill:#B7A9CC;}	.st5{fill:#9786B7;}	.st6{fill:#454F8F;}	.st7{opacity:0.4;}	.st8{opacity:0.17;}	.st9{opacity:0.51;}	.st10{fill:#FFFFFF;}	.st11{fill:#80B23C;}	.st12{display:none;fill:url(#SVGID_00000116215728834159082430000004670422948620576412_);}	.st13{fill:none;}	.st14{opacity:0.9;fill:#072233;}	.st15{fill:#EBEBEB;}	.st16{fill:#537B73;}	.st17{fill:#FCCE38;}	.st18{opacity:0.5;fill:#F7F7F7;}	.st19{fill:#F7F7F7;}	.st20{fill:#AC9EC1;}	.st21{fill:#80AD3C;}	.st22{fill:#434E82;}	.st23{fill:#5DA2CD;}	.st24{fill:#F1C338;}	.st25{fill:#71B5C0;}	.st26{fill:#AC9FBF;}	.st27{fill:#AC9FC0;}	.st28{fill:#AAA1B4;}	.st29{fill:#80AB4E;}	.st30{fill:#343434;}	.st31{fill:#A1A0D2;}	.st32{fill:#9EA0D2;}	.st33{fill:#A2A2A0;}	.st34{fill:#BFB188;}	.st35{fill:#CEAD84;}	.st36{fill:#9DA284;}	.st37{fill:#98A48C;}	.st38{fill:#8BA672;}	.st39{fill:#9BA287;}	.st40{fill:#92A483;}	.st41{fill:#8EA876;}	.st42{fill:#6F73A4;}	.st43{fill:#6B709C;}	.st44{fill:#343435;}	.st45{fill:#504A56;}	.st46{fill:#353335;}	.st47{fill:#3E3446;}	.st48{fill:#353435;}	.st49{fill:#4F4458;}	.st50{fill:#9A9DB6;}	.st51{fill:#879E74;}	.st52{fill:#AC9EC0;}	.st53{fill:#AB9DBF;}	.st54{fill:#AB9EBE;}	.st55{fill:#AA9CBD;}	.st56{fill:#A89CBA;}	.st57{fill:#A59BB5;}	.st58{fill:#A69BB5;}	.st59{display:none;}	.st60{fill:#454F84;}	.st61{fill:#02A294;}	.st62{fill:#E7E4EE;}	.st63{fill:#5DA7D2;}	.st64{fill:#71BAC5;}	.st65{opacity:0.8;clip-path:url(#SVGID_00000154412177324601382870000004027369670192944805_);fill:#454F8F;}	.st66{opacity:0.8;clip-path:url(#SVGID_00000183934945125466966880000014979719752636940955_);fill:#454F8F;}	.st67{fill:none;stroke:#E6E1F1;stroke-miterlimit:10;}	.st68{clip-path:url(#SVGID_00000029729015801425700920000013014670544599927733_);}	.st69{opacity:0.5;clip-path:url(#SVGID_00000029729015801425700920000013014670544599927733_);}	.st70{opacity:0.2;}	.st71{opacity:0.9;fill:#454F8F;}	.st72{fill:#263372;}	.st73{fill:#FFFFFF;stroke:#D9D9D9;stroke-miterlimit:10;}	.st74{fill:none;stroke:#FCCE38;stroke-width:2.4783;stroke-miterlimit:10;}	.st75{fill:#3E1151;}	.st76{opacity:0.8;clip-path:url(#SVGID_00000140011933383512825830000001559263977212199332_);fill:#454F8F;}	.st77{opacity:0.8;clip-path:url(#SVGID_00000075152363485182937250000000459075696928276625_);fill:#454F8F;}	.st78{opacity:0.2;clip-path:url(#SVGID_00000152261885473855158410000010992713598268642464_);}	.st79{opacity:0.2;clip-path:url(#SVGID_00000050633446278154367340000000548192404455500221_);}	.st80{opacity:0.2;clip-path:url(#SVGID_00000099653116408367326840000011997242672773836712_);}	.st81{opacity:0.78;fill:#454F8F;}	.st82{clip-path:url(#SVGID_00000108998201016928948960000001562219386091382963_);}	.st83{opacity:0.5;clip-path:url(#SVGID_00000108998201016928948960000001562219386091382963_);}	.st84{opacity:0.8;clip-path:url(#SVGID_00000042717871986477696040000003049342667752094368_);fill:#454F8F;}	.st85{opacity:0.8;clip-path:url(#SVGID_00000032648714923456284240000006471396994798635161_);fill:#454F8F;}	.st86{fill:#5DADD8;}	.st87{fill:#B9DD7F;}	.st88{opacity:0.2;clip-path:url(#SVGID_00000082341140753979202220000007658886678967927950_);}	.st89{opacity:0.2;clip-path:url(#SVGID_00000110439522406801584890000001517036365736126622_);}	.st90{opacity:0.2;clip-path:url(#SVGID_00000152256084919912537180000014228420839759268741_);}	.st91{opacity:0.59;fill:#072233;}	.st92{fill:none;stroke:#FFFFFF;stroke-width:3;stroke-linecap:round;stroke-miterlimit:10;}	.st93{fill:#FFFFFF;stroke:#FFFFFF;stroke-width:3;stroke-linecap:round;stroke-miterlimit:10;}</style><g>	<g>		<path class="st20" d="M220,120.4c0.4,0.7,1,1.3,1.5,2c0.7,0.9,1.5,1.9,2.3,2.8c1.2,1.6,0.6,4.1-1.3,4.9c-2.4,1-4.9,1.9-7.5,2.2   c-1.5,0.2-2.9,0.6-4.4,0.2c-1.4-0.4-2.5-1.1-3.4-2.2c-1.6-1.9-3.2-3.8-4.9-5.7c-0.3-0.3-0.4-0.1-0.5,0.1c-0.9,1.3-1.8,2.5-2.6,3.8   c-1.4,2.1-3.4,2.8-5.9,2.6c-1.2-0.1-2.4-0.2-3.5-0.2c-0.9,0-1.7-0.2-2.5-0.7c-0.4-0.3-0.9-0.1-1.4,0c-2.5,0.4-5.1,0.7-7.6,1.1   c-2.6,0.4-5.3,0.8-7.9,1.2c-2.4,0.3-4.7,1-7.2,0.9c-1.5-0.1-2.9-0.5-4-1.7c-0.2-0.2-0.3-0.3-0.6-0.2c-1.7,0.3-3.4,0.6-5.1,0.9   c-3.3,0.6-6.5,1.3-9.8,1.7c-1.7,0.2-3.3,0.3-5,0c-1.1-0.2-1.9-0.9-2.4-1.9c-0.1-0.3-0.2-0.3-0.4-0.2c-2.2,0.7-4.5,1-6.7,1.3   c-1.8,0.3-3.7,0.5-5.5,0.7c-1.5,0.2-2.9,0.2-4.4,0.3c-1.7,0.1-3.4,0.2-5.1,0.5c-0.5,0.1-0.8,0.3-1,0.8c-0.5,1-1.4,1.7-2.5,1.7   c-0.7,0-1.5-0.1-2.2-0.2c-1.2-0.1-2.4-0.3-3.7-0.4c-1.8-0.2-3.6-0.4-5.4-0.6c-1.5-0.2-2.6-1.1-3.3-2.4c-1.2-1.9-2.2-3.9-3.1-5.9   c-0.2-0.5-0.4-1.1-0.4-1.7c0-0.2,0-0.3-0.3-0.3c-1.5,0.2-3.1,0.4-4.6,0.3c-0.3,0-0.4,0.1-0.5,0.3c-1.3,1.9-2.6,3.9-3.9,5.8   c-0.5,0.8-1,1.5-1.6,2.2c-1.3,1.8-3.5,2.2-5.4,1c-1.9-1.1-3.7-2.2-5.6-3.3c-0.2-0.1-0.3-0.2-0.4-0.3c-0.3-0.5-0.7-0.4-1.1-0.1   c-2.5,1.3-5.2,2.1-8,2.6c-3.6,0.6-7.2,0.7-10.8,0.6c-4.4-0.2-8.5-1.4-12-4.1c-3.1-2.4-5.2-5.5-6.6-9.1c-0.4-1.2-0.8-2.4-0.9-3.6   c-0.2-0.3-0.1-0.7-0.3-1.1c-0.1-0.3-0.1-0.6-0.1-0.8c0-1.1,0-2.1,0-3.2c0-0.3,0-0.6,0-0.8c0-0.1,0-0.3,0.1-0.4   c0.2-0.2,0.2-0.4,0.1-0.7c0-0.2,0-0.4,0.1-0.5c0.1-0.2,0.2-0.3,0.2-0.5c0-0.1,0-0.3,0-0.4c0-0.1,0-0.3,0.1-0.4   c0.1-0.1,0.2-0.3,0.1-0.5c0-0.1,0-0.3,0.1-0.4c0.5-1.5,1-3.1,1.8-4.5c2.1-4,4.9-7.4,8.9-9.8c2.2-1.3,4.6-2.1,7.1-2.5   c1.5-0.2,3-0.4,4.5-0.3c2.1,0.1,4.1,0.3,6.1,0.7c0.3,0.1,0.4,0,0.5-0.3c0.4-2.2,1.7-3.6,3.8-4.2c3.2-0.9,6.5-1.6,9.8-2.4   c0.1,0,0.1,0,0.2,0c0.3-0.3,0.7-0.1,1,0c0.5,0.1,1,0.3,1.3,0.7c0,0.2,0.1,0.4,0.4,0.4c0.3,0.1,0.4,0.4,0.5,0.7   c0,0.2,0.1,0.4,0.2,0.5c0.3,0.4,0.3,0.9,0.2,1.4c-0.1,0.4-0.2,0.8-0.1,1.2c0.1,1.6-0.3,3.3-0.2,4.9c-0.2,1.1-0.3,2.2-0.4,3.3   c-0.5,4.2-1.2,8.4-2.1,12.6c-0.4,1.8-1.5,3-3.2,3.7c-2.5,1-5,2.2-7.5,3.2c-0.7,0.3-1.4,0.6-2.2,0.6c-1.7,0-2.9-1-3.2-2.6   c-0.4-2-1-3.9-2-5.7c-0.9-1.7-1.9-3.3-3.2-4.6c-0.4-0.4-1-0.8-1.6-1c-0.9-0.3-1.4-0.2-1.9,0.6c-0.8,1-1.2,2.2-1.5,3.4   c-0.6,2.4-0.5,4.7,0.4,6.9c1.5,3.5,4.1,5.8,8,6.3c2.8,0.4,5.3-0.5,7.3-2.5c1.1-1.1,2.5-1.6,4-1.9c2.3-0.3,4.6-0.7,6.9-1   c0.4-0.1,0.6-0.1,0.8-0.5c1.4-2.9,2.8-5.9,4-9c0.5-1.2,0.9-2.4,1.3-3.6c0.1-0.3,0.2-0.6,0.4-0.8c0.1-0.1,0.2-0.3,0.1-0.5   c0.1-0.5,0.3-1,0.5-1.6c0.1-0.1,0.2-0.3,0.2-0.5c0.1-0.3,0.2-0.5,0.2-0.8c0.1-0.1,0.2-0.3,0.2-0.4c0-0.1,0-0.1,0-0.2   c0.1-0.1,0.1-0.3,0.2-0.5c0-0.1,0-0.1,0.1-0.2c0.1-0.1,0.1-0.3,0.1-0.5c0-0.3,0-0.6,0.3-0.8c0.4-1.9,1.8-2.7,3.5-3.2   c2.7-0.8,5.4-1.2,8.2-1.6c0.6-0.1,1.2-0.2,1.9-0.3c1.1-0.1,1.9,0.5,2.6,1.1c0.9,0.8,1.2,1.9,1.4,3.1c0.2,1.3,0.6,2.5,1,3.8   c1.2-1.6,3.1-2.2,4.7-3.3c1.9-1.2,3.9-1.6,6.1-1.4c1.8,0.1,3.6,0.4,5.3,0.7c0.3,0.1,0.7,0.1,1,0.2c0.1-0.1,0.3-0.2,0.4-0.3   c0,0,0.1-0.1,0.1-0.1c0.1-0.2-0.1-0.6,0.3-0.6c0.3,0.1,0.2,0.4,0.2,0.7c-0.1,0.4-0.2,0.4-0.6,0.6c0.4-0.2,0.8,0.2,1.4,0.2   c0.1,0,0.2,0.1,0.1,0.2c0,0.1-0.1,0.2-0.2,0.2c-0.1,0.1-0.3,0.1-0.4,0.1c-0.3,0-0.6,0-1,0.1c-0.2,0.1-0.3,0-0.5-0.1   c-0.2-0.1-0.4-0.1-0.7,0c1,0.1,2,0,3,0c-0.3-0.4-0.3-0.4,0.2-0.7c0.4-0.4,0.8-0.4,1.3-0.2c0.9,0.2,1.8,0.4,2.8,0.6   c0.2,0,0.3,0.1,0.4,0.1c0.1,0,0.2,0.1,0.2,0.2c0,0.1-0.1,0.2-0.2,0.2c-0.2,0.1-0.5,0.2-0.7,0.2c0.8,0.5,1.6,0.2,2.4,0   c0.4-0.1,0.8-0.1,1.2,0c1.4,0.3,2.8,0.6,4.1,0.9c0.5,0.1,0.9-0.1,1.3-0.3c-0.5,0-0.9-0.1-1.3-0.2c-0.7-0.2-1.4-0.3-2.2-0.5   c-0.1,0-0.3-0.1-0.4-0.2c0-0.2,0.2-0.3,0.4-0.3c1.1-0.3,2.1-0.5,3.2-0.7c0.4-0.1,0.6,0.1,0.7,0.4c0,0.1,0,0.1,0.1,0.2   c0.2,0.9,0.2,0.9,1.1,0.7c0.2,0,0.3,0.2,0.4,0.3c0.1,0.2,0.3,0.1,0.4,0.1c0.2-0.1,0.1-0.2,0-0.3c-0.1-0.2,0-0.3,0.1-0.5   c0.1-0.1,0.3-0.3,0.5-0.1c0.2,0.1,0.3,0.1,0.5-0.1c2-0.7,4-1.5,6.1-1.5c1.3,0,2.5,0.9,2.8,2.2c0.9,3.3,1.6,6.7,2.3,10.1   c0.6,3,1.1,6.1,1.6,9.1c0.1,0.4,0.1,0.7,0.1,1.1c0,0.3,0.2,0.4,0.5,0.4c1.9-0.1,3.9-0.3,5.7-0.7c0.3-0.1,0.2-0.2,0.2-0.4   c-0.4-3.3-1.2-6.5-2.2-9.7c-0.4-1.4-0.7-2.7-0.3-4.1c0.3-1.1,0.9-2.1,1.6-3c1.1-1.4,2.3-2.8,3.8-3.8c1.3-0.9,2.7-1.4,4.2-1.5   c1.8,0.1,3.7,0.1,5.5,0c1,0,1.9,0,2.9,0c0.1-0.1,0.3-0.1,0.5-0.1c1.8,0,3.5,0,5.3,0c0.3,0,0.5,0,0.7,0.2c1.7,0.1,3.3,0.1,5,0.1   c1.1,0,2.1,0.5,3.1,0.9c1,0.5,1.4,1.5,1.5,2.5c0,0.3,0.1,0.6,0.1,1c1.8-0.7,3.6-1.2,5.4-1.8c1.7-0.6,3.3-0.3,4.8,0.7   c1.9,1.2,3.7,2.6,5.4,4c0.3,0.3,0.4,0.1,0.5-0.1c0.7-1.2,1.5-2.4,2.5-3.4c1.1-1.1,2.5-1.7,4-1.8c2.4-0.2,4.7-0.3,7.1-0.5   c1.4-0.1,2.6,0,3.8,0.8c0.9,0.7,1.4,1.6,1.5,2.7c0,0.5,0.1,0.7,0.6,0.7c-0.2,0.2-0.6,0.3-0.5,0.6c-0.1,0.1-0.2,0.3-0.1,0.5   c-0.2,0.8-0.6,1.5-1,2.2c-0.7,1-1.5,2-2.3,3c-1.1,1.5-2.3,2.9-3.4,4.4c-0.7,0.9-1.2,1.9-1.8,2.8c-0.1,0.1-0.2,0.3,0,0.4   c0.7,0.9,1.5,1.8,2.2,2.7c0.8,0.9,1.4,1.9,2.3,2.7C219.7,119.7,219.8,120.1,220,120.4z"></path>		<path class="st21" d="M82.7,97.5c0,0.1,0,0.1,0,0.2c-0.1,0.1-0.1,0.3-0.2,0.4c0,0.1,0,0.1,0,0.2c-0.1,0.1-0.1,0.3-0.2,0.4   c0,0.3-0.2,0.5-0.2,0.8c-0.1,0.1-0.1,0.3-0.2,0.4c0,0.6-0.4,1-0.4,1.6c-0.1,0.1-0.1,0.3-0.2,0.4c-0.1,0.3-0.2,0.6-0.3,0.8   c-0.3,0-0.3-0.2-0.4-0.4c-1.4-2.3-2.7-4.6-3.7-7.1c-0.1-0.2-0.2-0.4-0.1-0.6c0-1.9,0.3-3.8,0.2-5.7c0-0.1,0.1-0.3,0.1-0.4   c0.2-0.5,0.1-1-0.1-1.5c-0.1-0.1-0.1-0.3-0.2-0.4c-0.1-0.2-0.2-0.5-0.4-0.6c-0.2-0.1-0.3-0.2-0.4-0.4c-0.6-0.6-1.4-0.8-2.3-0.7   c-0.5-2.1-0.8-4.2-1-6.3c-0.3-2.5-0.3-5-0.2-7.6c0.1-3.1,0.5-6.1,1.2-9.2c0.9-4.3,2.3-8.4,4.2-12.3c0.1-0.1,0.1-0.2,0.2-0.4   c0.2-0.1,0.3-0.2,0.2-0.4c1.4-2.9,3.1-5.6,5-8.2c0.9-1.2,2.8-3.7,3-3.7c1.7-1.9,3.5-3.7,5.4-5.4c2.5-2.1,5.1-4,7.9-5.7   c3.6-2.1,7.3-3.8,11.3-5.1c2.3-0.7,4.6-1.3,7-1.7c1.3-0.2,2.6-0.5,4-0.6c-0.7,0.9-1.3,1.8-1.7,2.7c-2.2,4.9-1.9,9.6,1.1,14.1   c0.2,0.3,0.3,0.5-0.2,0.5c-2.4,0.3-4.7,0.8-6.9,1.5c-3.8,1.1-7.3,2.7-10.7,4.8c-0.1,0-0.1,0.1-0.2,0.1c-0.1,0.1-0.2,0.2-0.3,0.2   c-1.8,1.1-3.5,2.3-5.1,3.6c-1,0.8-2,1.7-2.8,2.6c-0.1,0.1-0.2,0.3-0.4,0.4c-2.3,2.3-4.3,4.7-6.1,7.4c-0.1,0.1-0.1,0.2-0.1,0.3   C88.2,56.8,88.2,57,88,57l0,0c-0.1,0.2-0.2,0.4-0.4,0.6c-1,1.6-1.9,3.3-2.7,5c-1.6,3.6-2.8,7.4-3.5,11.3c-0.7,4-0.9,8-0.5,12   c0.3,3.3,0.9,6.5,1.9,9.6c0.1,0.2,0.1,0.4,0.2,0.5c-0.1,0.3-0.3,0.6-0.2,0.9C82.8,97.2,82.8,97.3,82.7,97.5z"></path>		<path class="st22" d="M131,14.4c1.2,0,2.4,0,3.5,0c2.3,0.2,4.3,1.1,6.1,2.5c4.4,3.5,6.2,8.1,5,13.5c-1.2,5.4-4.7,8.7-10.1,10   C128.2,42,121,37,119.7,29.6c-1.2-7.1,3.7-14,10.8-15.2C130.7,14.4,130.9,14.4,131,14.4z"></path>		<path class="st23" d="M150.9,41c0-5.6,4.5-10.9,10.9-10.8c6.2,0,10.8,4.9,10.9,10.9c0,6-4.9,10.9-10.9,10.9   C155.5,51.8,150.8,46.7,150.9,41z"></path>		<path class="st24" d="M214.8,113.7c0.2-0.5,0.5-1,0.8-1.4c1.2-1.9,2.6-3.6,4-5.3c0.9-1.2,1.9-2.3,2.7-3.5c0.4-0.6,0.8-1.3,1-2   c0.1-0.1,0.1-0.3,0.2-0.4c-0.1-0.5,0.1-0.7,0.6-0.7c2,0,3.9,0.6,5.6,1.7c2.1,1.4,3.6,3.2,4.3,5.7c0.4,1.6,0.6,3.2,0.4,4.8   c-0.1,0.9-0.5,1.8-0.9,2.6c-1.1,2.5-2.9,4.2-5.4,5.3c-1.7,0.7-3.4,0.9-5.1,0.8c-1-0.1-2-0.4-2.9-0.8c-0.5-0.5-1-1-1.3-1.5   c-0.3-0.5-0.7-0.9-1-1.3c-0.7-1-1.5-1.9-2.3-2.8c-0.2-0.2-0.2-0.5-0.4-0.5C214.7,114,214.7,113.9,214.8,113.7z"></path>		<path class="st25" d="M168,64c-0.2-4.7,3.9-8.7,8.5-8.7c4.7,0,8.7,3.7,8.7,8.6c0,4.8-3.9,8.6-8.6,8.6   C171.7,72.7,167.9,68.5,168,64z"></path>		<path class="st21" d="M178.7,94.4c-2,0-4,0-5.9,0c-0.2,0-0.4,0-0.5-0.1c0.6-2.2,1-4.4,1.3-6.6c0.3-2.5,0.4-5.1,0.3-7.6   c-0.1-2.5-0.4-4.9-0.9-7.4c3.6,1.3,6.8,0.8,9.8-1.6c0.2,1,0.1,1.9,0.1,2.8c-0.1,4.4-0.6,8.8-1.7,13c-0.6,2.4-1.4,4.8-2.3,7.2   C178.8,94.1,178.8,94.3,178.7,94.4z"></path>		<path class="st21" d="M145.5,21.1c3.3,0.7,13.3,6,15.2,8.1c-1.1,0.2-2.2,0.4-3.2,0.8c-2.6,1-4.6,2.8-6,5.2c-1,1.7-1.5,3.6-1.4,5.6   c0,0.3,0,0.4-0.4,0.3c-2.2-1.3-4.6-2.3-7-3.1c-0.4-0.1-0.4-0.3-0.1-0.5c2.2-2.2,3.6-4.7,4.1-7.8c0.5-2.8,0.1-5.5-1-8   C145.6,21.5,145.6,21.3,145.5,21.1z"></path>		<path class="st21" d="M173.4,42.4c2.7,3.9,4.7,8.1,6.3,12.6c-2.3-0.7-4.5-0.7-6.6,0.2c-2.1,0.9-3.7,2.4-4.9,4.4   c-1.4-2.5-3-4.9-4.8-7.1C168.9,51.3,172.2,48,173.4,42.4z"></path>		<path class="st20" d="M119.2,95c-0.1,0.2-0.2,0.2-0.4,0.2c0.1-0.6,0.2-1.2,0.4-1.9c0,0,0,0,0.1,0.1c0,0,0,0-0.1-0.1   c0-0.3,0.1-0.6,0.2-0.8c0.1,0,0.1,0.1,0.1,0.2c0-0.1,0-0.1,0-0.2c0-0.1,0.1-0.2,0.1-0.3c0.1-0.2,0-0.3,0.1-0.5   c0-0.1,0.2-0.3-0.1-0.2c0.4-1.6,0.7-3.1,1.1-4.7c0.8-3.6,1.4-7.1,2.1-10.7c0.3-1.3,0.5-2.6,0.8-3.9c0.2-1,0.7-1.4,1.8-1.5   c-0.5-0.3-1.1-0.5-1.5-0.8c-0.9-0.7-1.5-1.6-1.7-2.6c-0.4-1.9,0.1-3.6,1.6-4.9c0.6-0.5,1.3-1,2-1.1c1-0.2,2-0.3,3.1-0.1   c1.5,0.3,2.9,1.5,3.3,2.7c0.5,1.2,0.4,2.2,0.2,3.5c-0.2,1.4-1.1,2.5-2.7,3.3c1.6,1,2,2.9,2.3,4.5c1,4.8,2.1,9.5,3.3,14.2   c0.4,1.7,0.9,3.5,1.3,5.2c0,0.1,0,0.3,0.1,0.4c-0.1,0.1-0.1,0.1-0.1,0.2c0-0.1,0-0.2,0.1-0.2c0.2,0.3,0.2,0.6,0.3,0.9   c0.1,0.2,0.1,0.3,0.3,0.3c0,0.3,0,0.5-0.4,0.2c-0.1-0.1-0.2-0.2-0.4,0c-0.1,0.2-0.1,0.1,0,0.4c0.1,0.2,0,0.4-0.1,0.5   c-0.2-0.2-0.4,0.2-0.6-0.1c-0.1-0.1-0.1-0.3-0.2-0.4c0.3-0.2,0.4-0.5,0.2-0.9c0-0.1-0.1-0.3,0.1-0.4c0.1-0.1,0.2,0.1,0.3,0   c0,0,0-0.1-0.1-0.2c-0.2-0.1-0.1,0.2-0.3,0.1c0,0,0,0-0.1,0c-0.2-0.1-0.2-0.3-0.2-0.4c-1.1-4.2-2.1-8.4-3.2-12.6   c-0.8-3.3-1.7-6.6-2.5-9.8c-0.1-0.5-0.3-0.7-0.8-0.7c-1.1,0-2.3,0-3.4,0c-0.4,0-0.6,0.2-0.6,0.6c-1,4.3-1.9,8.7-2.9,13   c-0.5,2.3-1,4.7-1.6,7c-0.2,0.8-0.3,1.5-0.5,2.3c-0.1,0.3,0,0.5,0.3,0.6c0.3,0.1,0.6,0.1,0.8,0.3c-0.1,0.1-0.3,0.1-0.3,0.3   c0.1,0.3,0.4,0.1,0.6,0.3c-1.3,0-2.6,0-3.8,0c0.4-0.4,0.7-0.4,1.2-0.2c0.1,0,0.2,0.1,0.2,0.1c0.5-0.3,1.1-0.1,1.6-0.3   c-0.5,0.1-0.9-0.6-1.4-0.2c-0.1,0.1-0.3,0.1-0.4,0c-0.1,0-0.1-0.1-0.1-0.2c0.1-0.1,0.2-0.2,0.4-0.2c0.5-0.1,0.7-0.4,0.7-0.8   c0-0.1,0-0.2-0.2-0.2c-0.1,0-0.2,0.1-0.2,0.2C119.4,94.7,119.5,94.9,119.2,95z"></path>		<path class="st26" d="M140.6,63.4c0,0.9,0,1.8-0.2,2.6c0,0.2,0,0.5-0.3,0.5c-0.3,0-0.2-0.3-0.2-0.5c0-2.2-0.1-4.3-0.7-6.4   c-0.8-2.6-2-5-4.3-6.6c-1.5-1-3.1-1.6-4.9-1.9c-2.5-0.4-5-0.3-7.5,0.4c-3.3,1-5.5,3.1-6.7,6.2c-0.6,1.6-0.9,3.3-1,5   c-0.1,1.1,0,2.2,0,3.3c0,0.2,0.1,0.4-0.2,0.4c-0.3,0.1-0.3-0.2-0.3-0.4c-0.3-1.7-0.4-3.5-0.3-5.3c0.2-1.7,0.5-3.2,1.2-4.8   c1.2-2.7,3.3-4.6,6.1-5.7c2.3-0.9,4.8-1.1,7.2-1c2.5,0.2,4.8,0.8,6.9,2.2c2.3,1.6,3.7,3.8,4.4,6.4   C140.4,59.8,140.7,61.6,140.6,63.4z"></path>		<path class="st27" d="M117.7,63.5c0.1-2.2,0.5-4.3,1.9-6.2c1.1-1.4,2.6-2.3,4.4-2.8c2.4-0.6,4.7-0.6,7,0.2c2.4,0.8,4,2.5,5,4.8   c0.8,2.1,1,4.4,0.6,6.6c0,0.2,0,0.4-0.3,0.4c-0.3,0-0.2-0.2-0.2-0.4c0-1.7-0.2-3.4-0.7-5.1c-1.1-3.2-3.3-5-6.7-5.3   c-1.7-0.2-3.4-0.1-5.1,0.5c-2.1,0.7-3.5,2.2-4.3,4.3c-0.7,1.8-0.9,3.7-0.7,5.6c0,0.2,0.1,0.4-0.2,0.5c-0.3,0.1-0.3-0.2-0.3-0.4   C117.8,65.3,117.8,64.4,117.7,63.5z"></path>		<path class="st26" d="M127.3,58.3c1.6,0,3,0.3,4.3,1.4c1.3,1,1.8,2.4,2.1,3.9c0.1,0.8,0.1,1.6-0.1,2.4c0,0.2,0,0.4-0.3,0.4   c-0.2,0-0.2-0.3-0.2-0.5c0-1.2-0.3-2.4-0.8-3.5c-0.8-1.6-2.2-2.3-3.9-2.6c-1.4-0.2-2.7-0.1-4,0.5c-1.7,0.8-2.3,2.3-2.6,4   c-0.1,0.6-0.1,1.1-0.1,1.7c0,0.1,0,0.3-0.2,0.3c-0.2,0.1-0.3-0.1-0.3-0.3c-0.8-2.9,0-6.5,3.8-7.5   C125.8,58.4,126.5,58.3,127.3,58.3z"></path>		<path class="st28" d="M169.4,94.3c-0.1,0.1-0.2,0.1-0.3,0.1c-1.6,0-3.2,0-4.9,0c-0.1,0-0.2,0-0.3-0.1   C165.7,94.2,167.5,94.3,169.4,94.3z"></path>		<path class="st20" d="M119.6,91.5c0.1,0,0.3-0.1,0.2,0.1c-0.1,0.2,0.1,0.5-0.1,0.7c0,0,0,0-0.1,0C119.5,92,119.5,91.8,119.6,91.5   C119.6,91.5,119.6,91.5,119.6,91.5z"></path>		<path class="st20" d="M119.7,92.2c0,0.2-0.2,0.4-0.1,0.7c-0.2-0.1-0.2-0.2-0.2-0.4c0-0.1,0-0.1,0-0.2   C119.5,92.2,119.6,92.1,119.7,92.2z"></path>		<path class="st20" d="M119.7,92.2c-0.1,0-0.2,0.1-0.3,0.1c0-0.3,0.1-0.5,0.2-0.7C119.6,91.8,119.6,92,119.7,92.2z"></path>		<path class="st29" d="M78.1,48.8c0.1,0,0.2,0,0.2,0.1c-0.1,0.1-0.1,0.4-0.4,0.3C78,49.1,78,48.9,78.1,48.8z"></path>		<path class="st60" d="M189.6,124.3c1.1-1.2,2.2-2.4,3.2-3.7c1.8-2,3.5-4.1,5.3-6c0.3-0.4,0.4-0.6,0-1c-1.9-2.1-3.7-4.2-5.5-6.4   c-1.3-1.6-2.6-3.2-3.8-4.8c-0.1-0.1-0.1-0.1-0.1-0.2c1.5-0.5,3-0.9,4.4-1.4c1.1-0.3,2.2-0.6,3.2-1c0.4-0.1,0.6-0.1,0.8,0.2   c2.6,2.8,5.2,5.6,7.7,8.3c0.5,0.6,0.5,0.6,1-0.1c1.5-2,2.9-4.1,4.4-6.1c0.2-0.2,0.3-0.3,0.6-0.3c2.4-0.2,4.8-0.4,7.2-0.6   c0.7-0.1,1.5-0.2,2.3-0.1c-0.6,0.7-1.2,1.4-1.7,2.1c-2.9,3.5-5.6,7-8.4,10.6c-0.2,0.2-0.2,0.4,0,0.6c3.3,4.1,6.6,8.1,9.9,12.2   c0.5,0.7,0.5,0.6-0.2,0.9c-2.5,0.7-4.9,1.3-7.4,2c-0.3,0.1-0.4,0-0.6-0.2c-2.6-3.3-5.4-6.4-8.1-9.6c-0.1-0.1-0.2-0.2-0.2-0.3   c-0.2-0.3-0.3-0.3-0.5,0c-1.6,1.6-2.9,3.5-4.3,5.3c-0.9,1.1-1.8,2.2-2.7,3.4c-0.2,0.3-0.5,0.4-0.8,0.4c-1.5,0-3.1-0.1-4.6,0   c-1.5,0.1-3.1,0-4.7,0.1c0.6-0.7,1.2-1.4,1.8-2.1c-1,0.2-1.9,0.3-2.8,0.5c-3.8,0.6-7.6,1.3-11.3,1.9c-3.3,0.6-6.7,1.1-10,1.7   c-0.3,0.1-0.6,0.1-1,0.2c-0.3,0.1-0.4,0-0.4-0.4c0-0.8,0-1.6,0-2.4c0-0.3-0.1-0.4-0.4-0.3c-3.4,0.7-6.7,1.3-10.1,1.9   c-2.6,0.5-5.1,1.1-7.8,1c-1.4,0-2.7,0.1-4.1,0.2c-0.4,0-0.5-0.1-0.5-0.5c0-1.3,0-2.6-0.1-4c-2.8,2-6.1,2.7-9.4,3.2   c-3.1,0.5-6.2,0.8-9.3,1.1c-2.5,0.2-4.9,0.3-7.4,0.5c-1.3,0.1-2.5,0.2-3.8,0.4c0.5,0.9,0.9,1.8,1.4,2.8c-1.3-0.2-2.5-0.3-3.7-0.4   c-1.9-0.2-3.8-0.4-5.7-0.7c-0.3,0-0.7-0.1-1-0.1c-0.5,0-0.7-0.2-1-0.6c-1.4-2.7-2.9-5.3-4.4-7.9c-0.2-0.4-0.5-0.6-1-0.6   c-3,0.2-6,0.3-8.9,0.4c-0.3,0-0.4,0.2-0.5,0.4c-1.3,2.2-2.6,4.4-3.9,6.5c-0.4,0.7-0.9,1.4-1.3,2.1c-0.1,0.2-0.2,0.2-0.4,0.1   c-2.6-1.5-5.3-3-7.9-4.5c-0.3-0.2-0.2-0.3-0.1-0.5c1.1-1.7,2.2-3.3,3.3-5c0,0,0.1-0.1,0-0.1c0-0.1,0,0,0,0   c-1.2,1.2-2.4,2.4-3.8,3.4c-2.9,2.2-6.1,3.7-9.7,4.4c-2.2,0.4-4.5,0.4-6.7,0.2c-2.1-0.2-4.1-0.6-6.1-1.3   c-4.7-1.6-8.3-4.6-10.5-9.1c-1.1-2.3-1.7-4.8-1.9-7.3c0-0.2-0.1-0.4-0.1-0.6c-0.1-1.1-0.1-2.2,0-3.3c0.2-1.5,0.4-3,0.9-4.5   c1.9-5.5,5.7-8.8,11.2-10.5c1.6-0.5,3.2-0.7,4.9-0.7c3,0,5.7,1,8.1,2.9c1,0.8,1.9,1.7,2.7,2.9c0.1-0.9,0.2-1.6,0.3-2.3   c0.2-2,0.5-4,0.7-6.1c0-0.3,0.3-0.3,0.5-0.4c1.8-0.5,3.6-1,5.4-1.6c1.4-0.4,2.9-0.8,4.3-1.2c0.5-0.1,0.5-0.1,0.5,0.4   c-0.5,2.7-1.1,5.5-1.6,8.2c-0.9,4.8-1.8,9.6-2.7,14.3c-0.1,0.5-0.3,0.8-0.8,1c-2.6,1-5.3,2-7.9,3c-0.4,0.1-0.5,0.1-0.6-0.3   c-0.8-3.3-1.7-6.5-3.2-9.5c-0.7-1.5-1.7-2.8-2.9-3.9c-2.2-2.1-4.8-2-6.9,0.2c-1.5,1.5-2.2,3.4-2.4,5.5c-0.1,0.8-0.1,1.7,0,2.5   c0.1,2.7,0.7,5.3,1.7,7.7c0.7,1.8,1.7,3.4,3,4.7c1.8,1.9,4,3,6.7,3.2c3.8,0.3,6.7-1.2,8.7-4.3c0.1-0.2,0.2-0.3,0.3-0.5   c0.1-0.7,0.6-0.8,1.2-0.9c3.3-0.6,6.6-1.2,10-1.8c0.3-0.1,0.6-0.1,0.7-0.5c3.6-6.6,6.5-13.5,8.7-20.6c0.4-1.2,0.4-1.2,1.6-1.5   c2.8-0.6,5.6-1.2,8.4-1.8c0.6-0.1,0.6-0.1,0.6,0.5c0.1,2.7,0.6,5.3,1.3,7.8c1.1,4,2.3,8.1,3.6,12c1.8,5.1,3.7,10.1,6,15   c0,0.1,0.1,0.2,0.3,0.2c0-0.8,0.1-1.5,0-2.3c-0.1-1-0.1-2.1-0.1-3.1c-0.2-2.9-0.6-5.7-1.2-8.5c-0.8-3.9-1.6-7.9-2.8-11.7   c-0.3-0.9-0.5-1.8-0.8-2.8c-0.1-0.3-0.1-0.4,0.3-0.6c2-0.7,4.1-1.5,6.1-2.2c0.4-0.1,0.7-0.2,1.1-0.1c5.7,1,11.3,2.4,16.7,4.6   c2.2,0.9,4.3,1.9,6.1,3.5c0.9,0.8,1.6,1.6,1.9,2.8c0.4,1.4,0,3.3-1.8,4.5c-0.5,0.4-1.1,0.7-1.6,1.1c-0.6,0.3-1.1,0.6-1.8,1   c1.4,0.3,2.8,0.6,4.1,1.1c1.3,0.4,2.6,0.9,4,1.7c-0.1-1.1-0.2-2.1-0.4-3.1c-0.2-0.1-0.2-0.3-0.2-0.5c-0.2-1.7-0.6-3.3-0.8-5   c0-0.1,0-0.2,0-0.4c-0.5-2.6-1-5.1-1.8-7.6c-0.2-0.6-0.2-0.6,0.4-0.8c2.5-0.8,5-1.5,7.6-2.3c0.3-0.1,0.5-0.1,0.6,0.3   c0.9,3.1,1.6,6.2,2.2,9.3c0.5,2.6,0.9,5.2,1.3,7.9c0.3,1.9,0.5,3.8,0.7,5.7c0,0.4,0.2,0.5,0.6,0.4c1.5-0.2,3-0.4,4.5-0.7   c2.3-0.3,4.6-0.7,6.9-1c1.6-0.2,1.6-0.2,1.3-1.8c-0.4-2.6-0.8-5.3-1.3-7.9c-0.5-2.4-1-4.9-1.8-7.2c-0.1-0.3,0.1-0.4,0.2-0.5   c1.5-1.2,3.1-2.3,4.6-3.6c0.6-0.5,1.1-0.6,1.8-0.5c1.6,0.1,3.2,0.1,4.7,0.2c3.2,0.1,6.3,0.2,9.5,0.3c1.7,0.1,3.4,0.1,5,0.2   c0.4,0,0.5,0.1,0.6,0.5c0.5,1.9,1.1,3.8,1.6,5.6c0.1,0.4,0,0.5-0.4,0.4c-0.7-0.1-1.5-0.1-2.2-0.2c-4.1-0.2-8.1-0.3-12.2-0.2   c-0.9,0-1.7,0.1-2.6,0.1c-0.3,0-0.4,0.1-0.3,0.4c0.3,1.3,0.5,2.5,0.8,3.8c0.1,0.3,0.2,0.4,0.5,0.4c2.5-0.1,4.9-0.3,7.4-0.4   c2.8-0.2,5.6-0.3,8.5-0.5c0.5,0,0.6,0,0.6,0.6c-0.3,1.7-0.4,3.4-0.6,5.1c0,0.2-0.1,0.3-0.4,0.3c-1.5,0.1-3,0.3-4.6,0.4   c-2.2,0.2-4.4,0.4-6.6,0.6c-1.3,0.1-2.6,0.2-3.9,0.3c-0.3,0-0.5,0.1-0.4,0.5c0.2,1.4,0.3,2.8,0.3,4.2c0,0.3,0.1,0.3,0.4,0.3   c2.2-0.3,4.4-0.6,6.7-0.9c2.3-0.3,4.6-0.7,6.9-1c2.4-0.3,4.8-0.7,7.2-1c0.1,0,0.2,0,0.4,0c-0.8,1.8-1.5,3.6-2.3,5.3   C189.6,124.2,189.5,124.3,189.6,124.3z"></path>		<path class="st30" d="M121.1,95.7c-0.4,0-0.8-0.3-1.2-0.3c-0.2,0-0.1-0.1-0.1-0.3c0.4-1.8,0.8-3.6,1.2-5.4   c1.3-5.8,2.6-11.7,3.9-17.5c0.1-0.3,0.2-0.5,0.5-0.4c1.3,0,2.6,0,4,0c0.3,0,0.4,0.1,0.5,0.4c1.8,7.2,3.6,14.4,5.5,21.6   c0.1,0.6,0.3,1.1,0.5,1.7l0,0c0,0.2,0,0.3,0.1,0.5c0.1,0.4,0.1,0.7-0.4,0.8c-0.1,0-0.2,0.1-0.3,0.1c-0.8,0.3-0.8,0.3-1-0.5   c-0.2-0.9-0.2-0.9-1.2-0.7c-1,0.2-2,0.4-2.9,0.8c1.3,0.3,2.7,0.6,4,0.9c-0.6,0.5-1.2,0.7-2,0.4c-1.2-0.4-2.4-0.5-3.6-0.8   c-0.6-0.1-1.1-0.1-1.6,0.1c-0.9,0.3-1.6,0.1-2.4-0.3c0.4-0.1,0.8-0.2,1.2-0.3c0,0,0-0.1,0-0.1c-1.3-0.3-2.6-0.6-3.9-0.9   c-0.2,0-0.3,0-0.3,0.2C121.5,95.9,121.3,95.7,121.1,95.7z"></path>		<path class="st20" d="M137.1,109.2c0.3,1.9,0.7,3.9,1,5.9c0,0.1-0.1,0.2-0.2,0.2c-0.6-0.3-1.2-0.5-1.8-0.8   c-0.2-0.1-0.2-0.2-0.1-0.3c0.8-1.4,1.1-2.9,1.1-4.5C137,109.5,137,109.3,137.1,109.2z"></path>		<path class="st31" d="M35.4,109.8c0,1.1,0,2.2,0,3.3c-0.1-0.1-0.1-0.2-0.1-0.3c0-0.9,0-1.8,0-2.7C35.3,110,35.3,109.9,35.4,109.8z   "></path>		<path class="st32" d="M45.6,109.9c-0.1-0.8-0.2-1.7,0-2.5C45.6,108.2,45.6,109,45.6,109.9z"></path>		<path class="st33" d="M75.9,85.7c0.2,0.1,0.4,0.2,0.4,0.4C76,86.2,75.8,86,75.9,85.7z"></path>		<path class="st34" d="M214.8,113.7c0,0.1,0,0.3,0,0.4C214.6,114,214.5,113.9,214.8,113.7z"></path>		<path class="st35" d="M223.5,101c0,0.2,0.1,0.4-0.2,0.4C223.3,101.2,223.2,101,223.5,101z"></path>		<path class="st36" d="M81.3,102c0-0.2-0.1-0.4,0.2-0.4C81.4,101.7,81.5,101.9,81.3,102z"></path>		<path class="st37" d="M82.7,97.5c0-0.2-0.1-0.4,0.2-0.4C82.9,97.2,83,97.4,82.7,97.5z"></path>		<path class="st38" d="M81.9,100c0-0.2-0.1-0.4,0.2-0.4C82.1,99.7,82.1,99.9,81.9,100z"></path>		<path class="st39" d="M76.7,86.7c0.3,0.1,0.2,0.3,0.2,0.4C76.6,87.1,76.7,86.9,76.7,86.7z"></path>		<path class="st40" d="M82.5,98.1c0-0.2-0.1-0.4,0.2-0.4C82.7,97.8,82.6,98,82.5,98.1z"></path>		<path class="st41" d="M82.3,98.7c0-0.2,0.1-0.3,0.2-0.4C82.5,98.5,82.5,98.6,82.3,98.7z"></path>		<path class="st42" d="M74.2,123.4c0-0.1,0-0.2,0.2-0.2c0,0.2-0.1,0.3-0.2,0.3C74.2,123.5,74.2,123.5,74.2,123.4z"></path>		<path class="st43" d="M189.6,124.3c0,0.1,0,0.2-0.2,0.2c0-0.2,0.1-0.3,0.1-0.4C189.6,124.2,189.6,124.2,189.6,124.3z"></path>		<path class="st30" d="M123.2,66c0-2.3,2-4.3,4.3-4.2c2.3,0.1,4.1,2,4.1,4.3c0,2.3-2,4.2-4.3,4.2C125,70.2,123.2,68.3,123.2,66z"></path>		<path class="st20" d="M135.9,95.5c0-0.1,0-0.3,0-0.5c0.4,0.2,0.5,0.3,0.3,0.9C136,95.9,136.1,95.5,135.9,95.5   C135.9,95.5,135.9,95.5,135.9,95.5z"></path>		<path class="st20" d="M119.9,93.7c-0.1-0.2-0.3-0.3-0.3-0.5c0.1,0.1,0.3-0.1,0.4,0C120.1,93.4,120,93.6,119.9,93.7z"></path>		<path class="st20" d="M136.7,95c0,0.2,0,0.4,0,0.7C136.5,95.3,136.4,95.1,136.7,95C136.7,95,136.7,95,136.7,95z"></path>		<path class="st20" d="M119.2,93.3c0.2,0.1,0.2,0.1,0.1,0.4C119.1,93.6,119.2,93.5,119.2,93.3C119.2,93.3,119.2,93.3,119.2,93.3z"></path>		<path class="st20" d="M119.2,95c-0.3-0.1-0.2-0.2-0.1-0.4C119.2,94.7,119.1,94.9,119.2,95z"></path>		<path class="st44" d="M115.3,57.3c1-2.9,2.8-5.1,5.6-6.2c4.3-1.7,8.6-1.8,12.9,0.1c2.9,1.3,4.5,3.7,5.5,6.6c0,0.1,0,0.1-0.1,0.2   c-0.1-0.3-0.2-0.5-0.3-0.8c-1.8-4-4.9-6.2-9.3-6.7c-2.2-0.3-4.5-0.2-6.7,0.4c-3.6,0.9-6.1,3.1-7.5,6.5   C115.4,57.5,115.3,57.4,115.3,57.3z"></path>		<path class="st45" d="M115.3,57.3c0,0,0.1,0.1,0.1,0.1c-0.1,0.2-0.2,0.5-0.2,0.7c0,0-0.1,0-0.1,0   C115.1,57.8,115.2,57.6,115.3,57.3z"></path>		<path class="st46" d="M118.8,60.1c0.5-1.7,1.5-3,2.9-4c3.1-2.1,8.3-2,11.3,0.2c1.4,1,2.7,3,2.9,4.5c-0.2-0.5-0.4-0.8-0.6-1.2   c-1.4-2.7-3.6-4-6.5-4.3c-1.8-0.2-3.6-0.1-5.3,0.5c-2,0.7-3.5,2-4.4,4c-0.1,0.2-0.2,0.4-0.3,0.6C118.7,60.2,118.7,60.2,118.8,60.1   z"></path>		<path class="st47" d="M118.8,60.1c0,0.1,0,0.1,0,0.2c0,0.2-0.1,0.4-0.2,0.6C118.5,60.6,118.6,60.3,118.8,60.1z"></path>		<path class="st48" d="M132.9,62.6c-1.2-2.6-3.4-3.4-6.1-3.3c-0.8,0-1.6,0.2-2.3,0.4c-1.2,0.4-2.1,1.2-2.6,2.4   c-0.1,0.1-0.1,0.2-0.2,0.4c0,0-0.1,0-0.1,0c0.3-1.2,1-2.1,2-2.8c2.1-1.4,5.8-1.3,7.8,0.3C132.2,60.7,132.8,61.5,132.9,62.6   C133,62.7,132.9,62.7,132.9,62.6z"></path>		<path class="st49" d="M132.9,62.6C132.9,62.6,133,62.6,132.9,62.6c0.2,0.1,0.2,0.2,0.2,0.4C133,62.9,132.9,62.7,132.9,62.6z"></path>		<path class="st20" d="M118.7,118.6c3,0.1,5.9,0.1,8.8,0.9c0.6,0.2,1.2,0.3,1.8,0.7c1,0.6,1,1.6,0,2.2c-0.7,0.4-1.5,0.7-2.3,1   c-2.1,0.6-4.3,0.9-6.5,1.2c-0.7,0.1-1.4,0.1-2,0.2c-0.3,0-0.4-0.1-0.4-0.4c-0.1-1.7-0.2-3.4-0.4-5.1c-0.1-0.7-0.1-0.7,0.6-0.7   C118.4,118.6,118.6,118.6,118.7,118.6z"></path>		<path class="st20" d="M115,105.8c1,0.1,2,0.1,3,0.2c2,0.2,3.9,0.7,5.7,1.7c0.5,0.3,1,0.6,1.4,1c1.3,1.1,1,2.4,0.1,3.3   c-0.9,1-2.2,1.4-3.4,1.7c-1.5,0.3-2.9,0.5-4.4,0.5c-0.2,0-0.4,0-0.5-0.3c-0.2-1.4-0.4-2.7-0.7-4   C115.9,108.5,115.6,107.2,115,105.8z"></path>		<path class="st27" d="M93,116.3c0.3,0.7,0.5,1.4,0.8,2.1c0.1,0.2,0,0.3-0.2,0.3c-2.2,0.1-4.3,0.2-6.5,0.3c-0.2,0-0.5,0.1-0.3-0.3   c0.9-1.8,1.7-3.7,2.7-5.5c0.4,0.1,0.7,0.4,0.9,0.8c-0.4,1-0.9,2-1.4,3.1c0.8,0,1.6-0.2,2.4-0.3c0.2,0,0.2-0.1,0.1-0.3   c-0.1-0.4-0.3-0.9-0.5-1.3c-0.1-0.2-0.2-0.3-0.1-0.5c0.5,0,0.8,0.4,1.1,0.7C92.4,115.7,92.7,116,93,116.3z"></path>		<path class="st20" d="M93,116.3c-0.4,0-0.6-0.3-0.8-0.6c-0.4-0.4-0.8-0.7-1.2-1c-0.3-0.2-0.6-0.3-0.7-0.7   c-0.3-0.3-0.5-0.6-0.8-0.8c0.4-0.8,0.8-1.6,1.1-2.4c0.1-0.1,0.2-0.1,0.3-0.1c0.2,0.1,0.3,0.2,0.3,0.4c0.4,0.7,0.6,1.6,0.9,2.3   c0.3,0.8,0.5,1.6,0.8,2.4C93,116,93,116.2,93,116.3z"></path>		<path class="st50" d="M91.2,111.2c-0.1-0.1-0.2-0.2-0.3-0.3c-0.1-0.1-0.2-0.1-0.2-0.2c0-0.2,0.1-0.3,0.3-0.4   C91.1,110.6,91.3,110.8,91.2,111.2z"></path>		<path class="st51" d="M90.7,110.6c0.1,0,0.2,0.1,0.2,0.2c-0.1,0-0.2,0-0.3,0C90.6,110.8,90.7,110.7,90.7,110.6z"></path>		<path class="st27" d="M127.8,95.9c-0.8-0.2-1.7-0.4-2.5-0.6c-1.1-0.2-2.1-0.5-3.2-0.7c-0.3-0.1-0.4-0.2-0.3-0.4   c0.2-0.7,0.3-1.4,0.5-2.1c0.1-0.3,0.2-0.4,0.4-0.4c1.6-0.4,3.2-0.9,4.8-1.3c0.2-0.1,0.4,0,0.6,0c1.6,0.4,3.1,0.9,4.7,1.3   c0.3,0.1,0.4,0.2,0.5,0.5c0.2,0.7,0.4,1.4,0.5,2.1c0.1,0.2,0.1,0.3-0.2,0.4c-1.9,0.4-3.7,0.8-5.6,1.2   C128,95.8,127.9,95.8,127.8,95.9z"></path>		<path class="st20" d="M127.6,89.4c-0.6-0.2-1.3-0.4-2.1-0.6c-0.7-0.2-1.3-0.4-2-0.5c-0.4-0.1-0.5-0.3-0.4-0.6   c0.2-0.6,0.3-1.2,0.4-1.8c0-0.2,0.2-0.4,0.4-0.5c1.2-0.4,2.4-0.8,3.5-1.2c0.2-0.1,0.4,0,0.5,0c1,0.4,2,0.7,3,1   c0.3,0.1,0.4,0.2,0.5,0.5c0.2,0.7,0.4,1.4,0.5,2.1c0,0.2,0.1,0.3-0.2,0.4c-1.4,0.4-2.7,0.7-4.1,1.1   C127.8,89.3,127.8,89.3,127.6,89.4z"></path>		<path class="st52" d="M127.4,73.5c1.1,0,1.1,0,1.3,1c0.2,0.6,0.3,1.2,0.5,1.8c0.1,0.3,0.1,0.5-0.2,0.6c-0.1,0-0.1,0-0.2,0.1   c-1,0.8-1.9,0.7-2.9,0c-0.2-0.2-0.3-0.3-0.2-0.5c0.2-0.8,0.4-1.7,0.5-2.5c0.1-0.4,0.2-0.5,0.6-0.5C127,73.6,127.2,73.5,127.4,73.5   z"></path>		<path class="st52" d="M127.8,83.1c-0.1,0-0.3-0.1-0.4-0.1c-0.9-0.3-1.7-0.6-2.6-0.9c-0.3-0.1-0.4-0.3-0.3-0.5c0,0,0-0.1,0-0.1   c0-1.2,0.7-1.8,1.8-2.3c0.8-0.3,1.4-0.5,2.1,0c0.1,0.1,0.2,0.1,0.3,0.1c1.5,0.8,1.5,0.8,1.9,2.4c0,0.1,0.1,0.3-0.1,0.4   C129.6,82.5,128.7,82.8,127.8,83.1z"></path>		<path class="st53" d="M132.9,90.8c-1.2-0.3-2.3-0.6-3.4-0.9c0,0,0-0.1,0-0.1c0.9-0.2,1.8-0.5,2.6-0.7c0.2-0.1,0.3,0,0.4,0.2   C132.6,89.7,132.7,90.2,132.9,90.8z"></path>		<path class="st54" d="M125.7,89.9c-0.9,0.3-1.8,0.5-2.8,0.8c-0.3,0.1-0.4,0-0.3-0.3c0,0,0,0,0,0c0.3-1.4,0.3-1.4,1.7-1   c0.5,0.1,0.9,0.3,1.4,0.4C125.8,89.9,125.7,89.9,125.7,89.9z"></path>		<path class="st55" d="M126.5,83.6c-0.9,0.3-1.7,0.6-2.5,0.9c0-0.1,0-0.1,0-0.1c0.1-0.5,0.1-1.2,0.4-1.4c0.3-0.2,0.9,0.2,1.4,0.4   C125.9,83.4,126.2,83.5,126.5,83.6z"></path>		<path class="st56" d="M129.1,83.6c0.6-0.2,1-0.4,1.5-0.5c0.2-0.1,0.3,0,0.4,0.2c0.1,0.3,0.2,0.7,0.3,1.1   C130.5,84.1,129.8,83.9,129.1,83.6z"></path>		<path class="st57" d="M129.8,79c-0.5-0.3-1-0.5-1.4-0.7C129.6,77.5,129.6,77.6,129.8,79z"></path>		<path class="st58" d="M126.4,78.3c-0.4,0.2-0.8,0.4-1.2,0.6c0-0.1,0-0.1,0-0.2C125.4,77.7,125.4,77.7,126.4,78.3z"></path>		<circle class="st24" cx="192.5" cy="83.3" r="7.3"></circle>		<circle class="st24" cx="219.3" cy="80.2" r="3.2"></circle>		<circle class="st24" cx="59.6" cy="71.3" r="10.5"></circle>		<circle class="st24" cx="28.8" cy="80.2" r="3.2"></circle>		<circle class="st24" cx="23.9" cy="111.9" r="7.4"></circle>	</g></g></svg>